<?xml version="1.0" standalone="no"?>
<!DOCTYPE svg PUBLIC "-//W3C//DTD SVG 20010904//EN"
 "http://www.w3.org/TR/2001/REC-SVG-20010904/DTD/svg10.dtd">
<svg version="1.0" xmlns="http://www.w3.org/2000/svg"
 width="200.000000pt" height="200.000000pt" viewBox="0 0 200.000000 200.000000"
 preserveAspectRatio="xMidYMid meet">
<metadata>
Created by potrace 1.15, written by Peter Selinger 2001-2017
</metadata>
<g transform="translate(0.000000,200.000000) scale(0.100000,-0.100000)"
fill="#000000" stroke="none">
<path d="M244 1290 c-86 -20 -144 -109 -144 -220 0 -84 24 -125 92 -158 38
-18 53 -33 73 -71 30 -60 58 -81 106 -81 50 0 99 40 99 81 0 35 -4 36 -42 4
-17 -14 -38 -25 -46 -23 -9 2 -27 23 -42 48 l-26 45 30 20 c44 29 73 78 86
142 21 99 -10 179 -80 207 -43 17 -58 18 -106 6z m96 -88 c23 -28 27 -102 9
-149 -37 -100 -145 -114 -169 -22 -21 78 13 168 72 193 39 17 63 11 88 -22z"/>
<path d="M1662 1118 c-7 -7 -12 -35 -12 -63 0 -43 -4 -56 -26 -76 l-27 -24 6
50 c3 28 9 65 13 83 7 32 6 33 -22 30 -24 -3 -31 -11 -51 -62 -32 -83 -47 -95
-40 -31 4 28 9 60 13 73 6 19 3 22 -24 22 -26 0 -32 -5 -40 -32 -39 -127 -8
-218 57 -170 24 17 27 17 42 1 9 -9 22 -18 29 -21 9 -3 10 -13 1 -43 -24 -87
-9 -155 34 -155 47 0 73 45 91 158 7 48 32 66 70 51 30 -11 64 -1 97 29 27 25
37 72 16 72 -6 0 -25 -11 -41 -25 -17 -14 -32 -24 -34 -23 -1 2 2 21 8 44 14
51 5 89 -27 110 -22 14 -27 14 -54 1 -25 -13 -31 -13 -35 -1 -7 17 -28 18 -44
2z"/>
<path d="M475 1101 c-3 -11 -10 -44 -15 -75 -16 -98 17 -147 72 -106 24 18 29
19 34 6 9 -24 39 -28 77 -12 30 12 41 12 74 1 35 -12 69 -11 118 6 6 2 20 -2
33 -9 25 -14 54 -4 71 26 10 16 10 16 11 0 0 -37 63 -44 101 -11 14 11 18 11
28 -1 41 -50 191 -3 191 60 0 30 -10 30 -56 -1 -37 -25 -84 -34 -84 -15 0 6 7
10 15 10 29 0 65 47 65 83 0 43 -15 57 -63 57 -51 0 -94 -41 -103 -99 -6 -40
-27 -70 -37 -54 -3 5 1 38 8 73 19 85 19 80 -14 80 -27 0 -31 -5 -45 -52 -17
-55 -41 -95 -49 -81 -2 4 1 34 8 66 13 63 8 73 -32 65 -13 -2 -22 -21 -33 -67
-12 -51 -21 -66 -43 -78 -16 -8 -38 -13 -49 -11 -18 3 -15 7 17 28 88 57 49
151 -52 126 -28 -8 -63 -60 -63 -97 0 -14 -10 -34 -21 -45 l-22 -19 6 45 c3
25 9 62 13 83 6 35 5 37 -20 37 -18 0 -29 -7 -35 -22 -47 -122 -68 -149 -58
-75 4 26 9 58 13 72 6 23 3 25 -24 25 -21 0 -32 -6 -37 -19z"/>
</g>
</svg>
