<?xml version="1.0" standalone="no"?>
<!DOCTYPE svg PUBLIC "-//W3C//DTD SVG 20010904//EN"
 "http://www.w3.org/TR/2001/REC-SVG-20010904/DTD/svg10.dtd">
<svg version="1.0" xmlns="http://www.w3.org/2000/svg"
 width="300.000000pt" height="300.000000pt" viewBox="0 0 300.000000 300.000000"
 preserveAspectRatio="xMidYMid meet">
<metadata>
Created by potrace 1.10, written by Peter Selinger 2001-2011
</metadata>
<g transform="translate(0.000000,300.000000) scale(0.050000,-0.050000)"
fill="#a9a9a9" stroke="none">
<path d="M2655 5588 c-1445 -261 -2143 -1944 -1321 -3183 275 -414 737 -719
1281 -846 191 -45 208 -41 158 37 -19 30 -49 82 -66 116 -27 53 -50 67 -144
87 -1511 332 -1869 2419 -566 3300 1511 1020 3440 -633 2674 -2291 -166 -359
-593 -805 -853 -892 -19 -6 4 -56 75 -167 55 -88 189 -303 297 -479 226 -369
358 -581 403 -645 l32 -45 -359 0 -359 0 -488 780 c-468 748 -491 780 -549
780 -245 0 -613 184 -862 430 -884 876 -318 2360 932 2442 1205 79 1945 -1350
1207 -2332 -78 -103 -337 -340 -372 -340 -36 0 -118 187 -89 203 631 353 749
1339 225 1892 -736 779 -2057 288 -2125 -789 -42 -660 523 -1300 1153 -1307
l91 -1 498 -789 499 -789 118 0 c138 0 138 -1 19 175 -43 63 -291 453 -551
867 l-474 751 -104 -8 c-586 -47 -1122 554 -1038 1164 155 1119 1754 1203
2013 106 107 -453 -129 -971 -524 -1148 -64 -29 -119 -55 -122 -58 -3 -2 58
-107 137 -232 79 -125 157 -248 173 -273 l28 -46 94 54 c1179 687 1141 2351
-66 2938 -821 399 -1790 63 -2198 -762 -469 -949 119 -2143 1147 -2330 l131
-23 288 -463 c159 -254 378 -604 488 -777 l199 -315 598 0 c328 0 597 5 597
12 0 6 -17 36 -37 65 -75 106 -843 1362 -842 1377 0 9 41 42 92 74 381 242
708 743 817 1252 296 1393 -953 2682 -2355 2428z"/>
</g>
</svg>
